# xmcd
#
# Track frame offsets:
#	150
#	19765
#	33032
#	43397
#	54017
#	70112
#	80572
#	94217
#	107545
#	119777
#	135030
#	150017
#	165395
#	177352
#	191577
#	202575
#	216027
#	229675
#	241647
#	253817
#	268120
#	278867
#	289442
#	301422
#	314237
#
# Disc length: 4333 seconds
#
# Revision: 0
# Processed by: cddbd v1.5.1PL0 Copyright (c) Steve Scherf et al.
# Submitted via: dBpowerAMP V4.0
#
DISCID=5410eb19
DTITLE=Various Artist - Shades of Country Volume 1
DYEAR=1900
DGENRE=Country
TTITLE0=Conway Twitty and Joni Lee - Don't Cry Joni
TTITLE1=Lynn Anderson - Rose Garden
TTITLE2=Freddy Fender - Before The Next Teardrop Fall
TTITLE3=Everly Brothers - All I Have To Do Is Dream
TTITLE4=Ray Charles - Your Cheating Heart
TTITLE5=Johnny Russel - Jambalaya
TTITLE6=Jimmy Dean - Big Bad John
TTITLE7=Lynn Anderson - Top of The World
TTITLE8=Sandy Posey - Young Love
TTITLE9=Kenny Rogers - For The Good Times
TTITLE10=Jeannie C. Riley - Harper Valley P.T.A
TTITLE11=Al Hirt And Ace Cannon - Paper Roses
TTITLE12=Skeeter Davis - The End Of The World
TTITLE13=Glen Campbell - Rhinestone Cowboy
TTITLE14=Frankie Laine - Rese Rose I Love You
TTITLE15=Patti Page - Tennessee Waltz
TTITLE16=Dickey Lee - 9,999,999 Tears
TTITLE17=The Shirelles - Will You Love Me Tomorrow
TTITLE18=Charlie Rich - The Most Beautiful Girl
TTITLE19=Freddy Fender - Wasted Day And Wasted Night
TTITLE20=Dale and Grace - I'm Leaving It All Up To You
TTITLE21=Jimmie Rodgers - Kisses Sweeter Than Wine
TTITLE22=Mark Dinning - Teen Angel
TTITLE23=David Houston - My Elusive Dream
TTITLE24=Everyly Brothers - Devoted To You
EXTD=
EXTT0=
EXTT1=
EXTT2=
EXTT3=
EXTT4=
EXTT5=
EXTT6=
EXTT7=
EXTT8=
EXTT9=
EXTT10=
EXTT11=
EXTT12=
EXTT13=
EXTT14=
EXTT15=
EXTT16=
EXTT17=
EXTT18=
EXTT19=
EXTT20=
EXTT21=
EXTT22=
EXTT23=
EXTT24=
PLAYORDER=
